<svg id="visual" viewBox="0 0 900 600" width="900" height="600" xmlns="http://www.w3.org/2000/svg" xmlns:xlink="http://www.w3.org/1999/xlink" version="1.1"><rect x="0" y="0" width="900" height="600" fill="#FFFFFF"></rect><path d="M0 397L21.5 403.7C43 410.3 86 423.7 128.8 422C171.7 420.3 214.3 403.7 257.2 411.5C300 419.3 343 451.7 385.8 470.3C428.7 489 471.3 494 514.2 484.2C557 474.3 600 449.7 642.8 435.5C685.7 421.3 728.3 417.7 771.2 434C814 450.3 857 486.7 878.5 504.8L900 523L900 601L878.5 601C857 601 814 601 771.2 601C728.3 601 685.7 601 642.8 601C600 601 557 601 514.2 601C471.3 601 428.7 601 385.8 601C343 601 300 601 257.2 601C214.3 601 171.7 601 128.8 601C86 601 43 601 21.5 601L0 601Z" fill="#ff3131" stroke-linecap="round" stroke-linejoin="miter"></path></svg>