<svg xmlns="http://www.w3.org/2000/svg" xmlns:xlink="http://www.w3.org/1999/xlink" width="150" zoomAndPan="magnify" viewBox="0 0 112.5 56.249996" height="75" preserveAspectRatio="xMidYMid meet" version="1.0"><defs><g/><clipPath id="ae13b7beed"><path d="M 0.492188 0 L 111.511719 0 L 111.511719 55.511719 L 0.492188 55.511719 Z M 0.492188 0 " clip-rule="nonzero"/></clipPath><clipPath id="c8f6f9d20a"><path d="M 8.328125 5.96875 L 54.421875 5.96875 L 54.421875 47.601562 L 8.328125 47.601562 Z M 8.328125 5.96875 " clip-rule="nonzero"/></clipPath><clipPath id="43f3c30ae6"><path d="M 21 0 L 67 0 L 67 55.511719 L 21 55.511719 Z M 21 0 " clip-rule="nonzero"/></clipPath><clipPath id="9dafc6e3ce"><path d="M 31.757812 0 L 66.84375 6.8125 L 56.929688 57.867188 L 21.84375 51.054688 Z M 31.757812 0 " clip-rule="nonzero"/></clipPath><clipPath id="7408e72e20"><path d="M 31.757812 0 L 66.679688 6.78125 L 56.800781 57.644531 L 21.882812 50.867188 Z M 31.757812 0 " clip-rule="nonzero"/></clipPath><clipPath id="93485b643c"><path d="M 57.914062 6.101562 L 104 6.101562 L 104 47.734375 L 57.914062 47.734375 Z M 57.914062 6.101562 " clip-rule="nonzero"/></clipPath><clipPath id="78ad4dc060"><path d="M 46 2 L 92 2 L 92 55.511719 L 46 55.511719 Z M 46 2 " clip-rule="nonzero"/></clipPath><clipPath id="22fc633716"><path d="M 46.382812 8.875 L 81.472656 2.09375 L 91.34375 53.15625 L 56.253906 59.941406 Z M 46.382812 8.875 " clip-rule="nonzero"/></clipPath><clipPath id="9ac44e05e1"><path d="M 46.382812 8.875 L 81.308594 2.125 L 91.144531 52.996094 L 56.21875 59.75 Z M 46.382812 8.875 " clip-rule="nonzero"/></clipPath><clipPath id="b67f274f1f"><path d="M 40 2.125 L 71 2.125 L 71 55.511719 L 40 55.511719 Z M 40 2.125 " clip-rule="nonzero"/></clipPath><clipPath id="fafff8bf1c"><path d="M 32.777344 10.828125 L 77 10.828125 L 77 47.417969 L 32.777344 47.417969 Z M 32.777344 10.828125 " clip-rule="nonzero"/></clipPath><clipPath id="75b3c62f38"><path d="M 51.035156 10.828125 L 58.800781 10.828125 C 63.640625 10.828125 68.285156 12.753906 71.710938 16.175781 C 75.136719 19.601562 77.058594 24.246094 77.058594 29.089844 C 77.058594 33.929688 75.136719 38.574219 71.710938 42 C 68.285156 45.425781 63.640625 47.347656 58.800781 47.347656 L 51.035156 47.347656 C 46.191406 47.347656 41.546875 45.425781 38.125 42 C 34.699219 38.574219 32.777344 33.929688 32.777344 29.089844 C 32.777344 24.246094 34.699219 19.601562 38.125 16.175781 C 41.546875 12.753906 46.191406 10.828125 51.035156 10.828125 " clip-rule="nonzero"/></clipPath></defs><g clip-path="url(#ae13b7beed)"><path fill="#ffffff" d="M 0.492188 0 L 112.007812 0 L 112.007812 62.449219 L 0.492188 62.449219 Z M 0.492188 0 " fill-opacity="1" fill-rule="nonzero"/><path fill="#ffffff" d="M 0.492188 0 L 112.007812 0 L 112.007812 55.757812 L 0.492188 55.757812 Z M 0.492188 0 " fill-opacity="1" fill-rule="nonzero"/><path fill="#ffffff" d="M 0.492188 0 L 112.007812 0 L 112.007812 55.757812 L 0.492188 55.757812 Z M 0.492188 0 " fill-opacity="1" fill-rule="nonzero"/></g><g clip-path="url(#c8f6f9d20a)"><path fill="#000000" d="M 50.523438 47.609375 L 50.523438 21.835938 L 53.414062 21.835938 C 53.679688 21.835938 53.90625 21.738281 54.09375 21.550781 C 54.28125 21.359375 54.375 21.128906 54.375 20.863281 L 54.375 13.082031 C 54.375 12.8125 54.28125 12.582031 54.09375 12.394531 C 53.90625 12.203125 53.679688 12.109375 53.414062 12.109375 L 48.476562 12.109375 L 48.476562 9.675781 C 48.476562 9.40625 48.382812 9.179688 48.191406 8.988281 C 48.003906 8.796875 47.777344 8.703125 47.511719 8.703125 L 47.3125 8.703125 L 47.3125 6.941406 C 47.3125 6.675781 47.21875 6.445312 47.03125 6.253906 C 46.839844 6.066406 46.613281 5.96875 46.347656 5.96875 L 40.96875 5.96875 C 40.703125 5.96875 40.476562 6.066406 40.289062 6.253906 C 40.097656 6.445312 40.003906 6.675781 40.003906 6.941406 L 40.003906 8.703125 L 39.804688 8.703125 C 39.539062 8.703125 39.3125 8.796875 39.125 8.988281 C 38.9375 9.179688 38.84375 9.40625 38.84375 9.675781 L 38.84375 12.109375 L 23.910156 12.109375 L 23.910156 9.675781 C 23.910156 9.40625 23.816406 9.179688 23.628906 8.988281 C 23.441406 8.796875 23.214844 8.703125 22.945312 8.703125 L 22.746094 8.703125 L 22.746094 6.941406 C 22.746094 6.675781 22.652344 6.445312 22.464844 6.253906 C 22.277344 6.066406 22.050781 5.96875 21.785156 5.96875 L 16.402344 5.96875 C 16.136719 5.96875 15.910156 6.066406 15.722656 6.253906 C 15.535156 6.445312 15.441406 6.675781 15.441406 6.941406 L 15.441406 8.703125 L 15.242188 8.703125 C 14.972656 8.703125 14.746094 8.796875 14.558594 8.988281 C 14.371094 9.179688 14.277344 9.40625 14.277344 9.675781 L 14.277344 12.109375 L 9.339844 12.109375 C 9.074219 12.109375 8.847656 12.203125 8.660156 12.394531 C 8.46875 12.582031 8.375 12.8125 8.375 13.082031 L 8.375 20.863281 C 8.375 21.128906 8.46875 21.359375 8.660156 21.550781 C 8.847656 21.738281 9.074219 21.835938 9.339844 21.835938 L 12.230469 21.835938 L 12.230469 47.609375 Z M 48.59375 45.664062 L 14.15625 45.664062 L 14.15625 21.835938 L 48.59375 21.835938 Z M 41.933594 7.914062 L 45.386719 7.914062 L 45.386719 8.703125 L 41.933594 8.703125 Z M 40.769531 10.648438 L 46.546875 10.648438 L 46.546875 12.109375 L 40.769531 12.109375 Z M 17.367188 7.914062 L 20.820312 7.914062 L 20.820312 8.703125 L 17.367188 8.703125 Z M 16.203125 10.648438 L 21.984375 10.648438 L 21.984375 12.109375 L 16.203125 12.109375 Z M 10.304688 19.890625 L 10.304688 14.054688 L 52.449219 14.054688 L 52.449219 19.890625 Z M 10.304688 19.890625 " fill-opacity="1" fill-rule="nonzero"/></g><path fill="#000000" d="M 16.402344 27.085938 L 18.128906 27.085938 L 18.128906 28.828125 C 18.128906 29.097656 18.222656 29.328125 18.414062 29.515625 C 18.601562 29.707031 18.828125 29.800781 19.09375 29.800781 C 19.359375 29.800781 19.585938 29.707031 19.773438 29.515625 C 19.964844 29.328125 20.058594 29.097656 20.058594 28.828125 L 20.058594 27.085938 L 21.785156 27.085938 C 22.050781 27.085938 22.277344 26.988281 22.464844 26.800781 C 22.652344 26.609375 22.746094 26.378906 22.746094 26.113281 C 22.746094 25.84375 22.652344 25.613281 22.464844 25.425781 C 22.277344 25.234375 22.050781 25.140625 21.785156 25.140625 L 20.058594 25.140625 L 20.058594 23.398438 C 20.058594 23.128906 19.964844 22.902344 19.773438 22.710938 C 19.585938 22.519531 19.359375 22.425781 19.09375 22.425781 C 18.828125 22.425781 18.601562 22.519531 18.414062 22.710938 C 18.222656 22.902344 18.128906 23.128906 18.128906 23.398438 L 18.128906 25.140625 L 16.402344 25.140625 C 16.136719 25.140625 15.910156 25.234375 15.722656 25.425781 C 15.535156 25.613281 15.441406 25.84375 15.441406 26.113281 C 15.441406 26.378906 15.535156 26.609375 15.722656 26.800781 C 15.910156 26.988281 16.136719 27.085938 16.402344 27.085938 Z M 16.402344 27.085938 " fill-opacity="1" fill-rule="nonzero"/><path fill="#000000" d="M 39.804688 27.085938 L 45.183594 27.085938 C 45.449219 27.085938 45.675781 26.988281 45.863281 26.800781 C 46.050781 26.609375 46.144531 26.378906 46.144531 26.113281 C 46.144531 25.84375 46.050781 25.613281 45.863281 25.425781 C 45.675781 25.234375 45.449219 25.140625 45.183594 25.140625 L 39.804688 25.140625 C 39.539062 25.140625 39.3125 25.234375 39.125 25.425781 C 38.9375 25.613281 38.84375 25.84375 38.84375 26.113281 C 38.84375 26.378906 38.9375 26.609375 39.125 26.800781 C 39.3125 26.988281 39.539062 27.085938 39.804688 27.085938 Z M 39.804688 27.085938 " fill-opacity="1" fill-rule="nonzero"/><path fill="#000000" d="M 27.300781 35.007812 L 30.605469 35.007812 L 26.488281 41.535156 C 26.347656 41.761719 26.304688 42.007812 26.363281 42.269531 C 26.421875 42.53125 26.5625 42.734375 26.785156 42.878906 C 26.941406 42.980469 27.113281 43.03125 27.300781 43.03125 C 27.660156 43.035156 27.933594 42.886719 28.125 42.582031 L 33.183594 34.558594 C 33.386719 34.234375 33.398438 33.902344 33.214844 33.566406 C 33.03125 33.230469 32.75 33.0625 32.367188 33.0625 L 29.328125 33.0625 L 35.023438 26.058594 C 35.191406 25.851562 35.261719 25.613281 35.234375 25.347656 C 35.210938 25.078125 35.09375 24.859375 34.886719 24.691406 C 34.679688 24.519531 34.445312 24.449219 34.179688 24.472656 C 33.917969 24.5 33.699219 24.617188 33.53125 24.824219 L 26.546875 33.417969 C 26.289062 33.734375 26.246094 34.078125 26.421875 34.449219 C 26.59375 34.820312 26.882812 35.007812 27.292969 35.007812 Z M 27.300781 35.007812 " fill-opacity="1" fill-rule="nonzero"/><g clip-path="url(#43f3c30ae6)"><g clip-path="url(#9dafc6e3ce)"><g clip-path="url(#7408e72e20)"><path fill="#ffffff" d="M 31.757812 0 L 66.582031 6.761719 L 56.71875 57.554688 L 21.894531 50.792969 Z M 31.757812 0 " fill-opacity="1" fill-rule="nonzero"/></g></g></g><g clip-path="url(#93485b643c)"><path fill="#000000" d="M 100.105469 47.742188 L 100.105469 21.964844 L 102.996094 21.964844 C 103.261719 21.964844 103.488281 21.871094 103.675781 21.679688 C 103.863281 21.492188 103.960938 21.261719 103.960938 20.992188 L 103.960938 13.210938 C 103.960938 12.945312 103.863281 12.714844 103.675781 12.523438 C 103.488281 12.335938 103.261719 12.238281 102.996094 12.238281 L 98.058594 12.238281 L 98.058594 9.808594 C 98.058594 9.539062 97.964844 9.308594 97.777344 9.121094 C 97.589844 8.929688 97.363281 8.835938 97.09375 8.835938 L 96.894531 8.835938 L 96.894531 7.074219 C 96.894531 6.804688 96.800781 6.578125 96.613281 6.386719 C 96.425781 6.195312 96.199219 6.101562 95.933594 6.101562 L 90.550781 6.101562 C 90.285156 6.101562 90.058594 6.195312 89.871094 6.386719 C 89.683594 6.578125 89.589844 6.804688 89.589844 7.074219 L 89.589844 8.835938 L 89.390625 8.835938 C 89.121094 8.835938 88.894531 8.929688 88.707031 9.121094 C 88.519531 9.308594 88.425781 9.539062 88.425781 9.808594 L 88.425781 12.238281 L 73.492188 12.238281 L 73.492188 9.808594 C 73.492188 9.539062 73.398438 9.308594 73.210938 9.121094 C 73.023438 8.929688 72.796875 8.835938 72.53125 8.835938 L 72.332031 8.835938 L 72.332031 7.074219 C 72.332031 6.804688 72.238281 6.578125 72.046875 6.386719 C 71.859375 6.195312 71.632812 6.101562 71.367188 6.101562 L 65.988281 6.101562 C 65.722656 6.101562 65.492188 6.195312 65.304688 6.386719 C 65.117188 6.578125 65.023438 6.804688 65.023438 7.074219 L 65.023438 8.835938 L 64.824219 8.835938 C 64.558594 8.835938 64.332031 8.929688 64.144531 9.121094 C 63.953125 9.308594 63.859375 9.539062 63.859375 9.808594 L 63.859375 12.238281 L 58.921875 12.238281 C 58.65625 12.238281 58.429688 12.335938 58.242188 12.523438 C 58.054688 12.714844 57.960938 12.945312 57.960938 13.210938 L 57.960938 20.992188 C 57.960938 21.261719 58.054688 21.492188 58.242188 21.679688 C 58.429688 21.871094 58.65625 21.964844 58.921875 21.964844 L 61.8125 21.964844 L 61.8125 47.742188 Z M 98.179688 45.796875 L 63.738281 45.796875 L 63.738281 21.964844 L 98.179688 21.964844 Z M 91.515625 8.046875 L 94.96875 8.046875 L 94.96875 8.835938 L 91.515625 8.835938 Z M 90.351562 10.78125 L 96.132812 10.78125 L 96.132812 12.238281 L 90.351562 12.238281 Z M 66.949219 8.046875 L 70.402344 8.046875 L 70.402344 8.835938 L 66.949219 8.835938 Z M 65.789062 10.78125 L 71.566406 10.78125 L 71.566406 12.238281 L 65.789062 12.238281 Z M 59.886719 20.019531 L 59.886719 14.183594 L 102.03125 14.183594 L 102.03125 20.019531 Z M 59.886719 20.019531 " fill-opacity="1" fill-rule="nonzero"/></g><path fill="#000000" d="M 65.988281 27.214844 L 67.714844 27.214844 L 67.714844 28.960938 C 67.714844 29.230469 67.808594 29.457031 67.996094 29.648438 C 68.183594 29.835938 68.410156 29.933594 68.675781 29.933594 C 68.941406 29.933594 69.171875 29.835938 69.359375 29.648438 C 69.546875 29.457031 69.640625 29.230469 69.640625 28.960938 L 69.640625 27.214844 L 71.367188 27.214844 C 71.632812 27.214844 71.859375 27.121094 72.046875 26.929688 C 72.238281 26.742188 72.332031 26.511719 72.332031 26.242188 C 72.332031 25.976562 72.238281 25.746094 72.046875 25.554688 C 71.859375 25.367188 71.632812 25.269531 71.367188 25.269531 L 69.640625 25.269531 L 69.640625 23.53125 C 69.640625 23.261719 69.546875 23.03125 69.359375 22.84375 C 69.171875 22.652344 68.941406 22.558594 68.675781 22.558594 C 68.410156 22.558594 68.183594 22.652344 67.996094 22.84375 C 67.808594 23.03125 67.714844 23.261719 67.714844 23.53125 L 67.714844 25.269531 L 65.988281 25.269531 C 65.722656 25.269531 65.492188 25.367188 65.304688 25.554688 C 65.117188 25.746094 65.023438 25.976562 65.023438 26.242188 C 65.023438 26.511719 65.117188 26.742188 65.304688 26.929688 C 65.492188 27.121094 65.722656 27.214844 65.988281 27.214844 Z M 65.988281 27.214844 " fill-opacity="1" fill-rule="nonzero"/><path fill="#000000" d="M 89.390625 27.214844 L 94.765625 27.214844 C 95.03125 27.214844 95.257812 27.121094 95.449219 26.929688 C 95.636719 26.742188 95.730469 26.511719 95.730469 26.242188 C 95.730469 25.976562 95.636719 25.746094 95.449219 25.554688 C 95.257812 25.367188 95.03125 25.269531 94.765625 25.269531 L 89.390625 25.269531 C 89.121094 25.269531 88.894531 25.367188 88.707031 25.554688 C 88.519531 25.746094 88.425781 25.976562 88.425781 26.242188 C 88.425781 26.511719 88.519531 26.742188 88.707031 26.929688 C 88.894531 27.121094 89.121094 27.214844 89.390625 27.214844 Z M 89.390625 27.214844 " fill-opacity="1" fill-rule="nonzero"/><path fill="#000000" d="M 76.886719 35.140625 L 80.1875 35.140625 L 76.074219 41.667969 C 75.929688 41.894531 75.886719 42.140625 75.945312 42.402344 C 76.003906 42.664062 76.144531 42.867188 76.371094 43.011719 C 76.527344 43.113281 76.699219 43.164062 76.886719 43.164062 C 77.242188 43.167969 77.515625 43.019531 77.707031 42.714844 L 82.765625 34.6875 C 82.96875 34.363281 82.980469 34.035156 82.796875 33.699219 C 82.613281 33.359375 82.332031 33.191406 81.953125 33.195312 L 78.914062 33.195312 L 84.605469 26.191406 C 84.773438 25.984375 84.84375 25.746094 84.820312 25.476562 C 84.792969 25.210938 84.675781 24.992188 84.472656 24.820312 C 84.265625 24.652344 84.03125 24.578125 83.765625 24.605469 C 83.5 24.632812 83.285156 24.75 83.113281 24.957031 L 76.132812 33.546875 C 75.871094 33.867188 75.832031 34.210938 76.003906 34.582031 C 76.179688 34.953125 76.46875 35.140625 76.875 35.140625 Z M 76.886719 35.140625 " fill-opacity="1" fill-rule="nonzero"/><g clip-path="url(#78ad4dc060)"><g clip-path="url(#22fc633716)"><g clip-path="url(#9ac44e05e1)"><path fill="#ffffff" d="M 46.382812 8.875 L 81.210938 2.144531 L 91.03125 52.945312 L 56.203125 59.679688 Z M 46.382812 8.875 " fill-opacity="1" fill-rule="nonzero"/></g></g></g><g clip-path="url(#b67f274f1f)"><path fill="#000000" d="M 43.207031 55.628906 C 42.761719 55.625 42.367188 55.492188 42.015625 55.21875 C 41.828125 55.082031 41.667969 54.914062 41.542969 54.71875 C 41.417969 54.523438 41.328125 54.3125 41.277344 54.085938 C 41.230469 53.859375 41.222656 53.632812 41.257812 53.402344 C 41.292969 53.175781 41.367188 52.957031 41.480469 52.753906 L 41.492188 52.738281 L 53.195312 32.195312 L 42.035156 32.195312 C 41.640625 32.195312 41.28125 32.089844 40.953125 31.871094 C 40.628906 31.65625 40.386719 31.371094 40.234375 31.011719 C 40.082031 30.652344 40.039062 30.28125 40.113281 29.898438 C 40.1875 29.515625 40.359375 29.183594 40.632812 28.90625 L 64.414062 2.933594 L 64.449219 2.898438 C 64.609375 2.738281 64.792969 2.609375 65 2.511719 C 65.207031 2.417969 65.421875 2.359375 65.652344 2.339844 C 65.878906 2.316406 66.101562 2.335938 66.324219 2.390625 C 66.542969 2.449219 66.75 2.539062 66.9375 2.667969 C 67.125 2.796875 67.285156 2.953125 67.417969 3.136719 C 67.554688 3.316406 67.652344 3.519531 67.714844 3.734375 C 67.777344 3.953125 67.800781 4.175781 67.785156 4.402344 C 67.769531 4.625 67.714844 4.84375 67.625 5.050781 L 67.609375 5.078125 L 58.363281 24.242188 L 68.1875 24.242188 C 68.738281 24.246094 69.246094 24.394531 69.707031 24.699219 C 70.167969 25 70.507812 25.40625 70.722656 25.910156 C 70.9375 26.414062 70.996094 26.9375 70.894531 27.476562 C 70.792969 28.015625 70.550781 28.480469 70.167969 28.875 L 44.582031 55.046875 L 44.554688 55.078125 C 44.179688 55.441406 43.730469 55.625 43.207031 55.628906 Z M 43.15625 53.640625 Z M 42.167969 30.195312 L 53.296875 30.195312 C 53.46875 30.195312 53.632812 30.21875 53.796875 30.261719 C 53.960938 30.304688 54.117188 30.367188 54.265625 30.449219 C 54.414062 30.53125 54.546875 30.632812 54.667969 30.75 C 54.789062 30.867188 54.894531 31 54.980469 31.144531 C 55.066406 31.289062 55.132812 31.441406 55.179688 31.601562 C 55.226562 31.761719 55.25 31.925781 55.253906 32.09375 C 55.257812 32.261719 55.242188 32.429688 55.203125 32.59375 C 55.160156 32.753906 55.101562 32.910156 55.019531 33.058594 L 55.011719 33.074219 L 43.484375 53.304688 L 68.714844 27.488281 C 68.941406 27.253906 68.992188 26.988281 68.867188 26.691406 C 68.738281 26.390625 68.511719 26.242188 68.183594 26.242188 L 58.269531 26.242188 C 58.105469 26.242188 57.945312 26.222656 57.789062 26.183594 C 57.632812 26.144531 57.480469 26.085938 57.335938 26.007812 C 57.195312 25.933594 57.0625 25.839844 56.941406 25.730469 C 56.824219 25.621094 56.71875 25.5 56.628906 25.363281 C 56.539062 25.226562 56.46875 25.085938 56.417969 24.933594 C 56.363281 24.78125 56.332031 24.621094 56.316406 24.460938 C 56.304688 24.300781 56.3125 24.140625 56.335938 23.984375 C 56.363281 23.824219 56.410156 23.671875 56.476562 23.523438 L 56.488281 23.492188 L 65.605469 4.609375 Z M 66.703125 4.648438 Z M 66.703125 4.648438 " fill-opacity="1" fill-rule="nonzero"/></g><g clip-path="url(#fafff8bf1c)"><g clip-path="url(#75b3c62f38)"><path fill="#ffffff" d="M 32.777344 10.828125 L 76.945312 10.828125 L 76.945312 47.417969 L 32.777344 47.417969 Z M 32.777344 10.828125 " fill-opacity="1" fill-rule="nonzero"/></g></g><g fill="#000000" fill-opacity="1"><g transform="translate(30.301952, 37.010719)"><g><path d="M 3.089844 0 C 4.863281 0 6.28125 -0.261719 6.28125 -1.804688 C 6.28125 -3.253906 5.183594 -3.347656 4.148438 -3.386719 L 4.148438 -3.773438 C 4.875 -3.832031 5.78125 -3.859375 5.78125 -5.132812 C 5.78125 -6.476562 4.863281 -6.804688 2.972656 -6.804688 L 0.578125 -6.804688 L 0.578125 0 Z M 2.121094 -5.453125 L 3.164062 -5.453125 C 3.792969 -5.453125 4.238281 -5.453125 4.238281 -4.835938 C 4.238281 -4.21875 3.792969 -4.21875 3.164062 -4.21875 L 2.121094 -4.21875 Z M 2.121094 -2.867188 L 3.28125 -2.867188 C 4.199219 -2.867188 4.738281 -2.867188 4.738281 -2.105469 C 4.738281 -1.351562 4.199219 -1.351562 3.28125 -1.351562 L 2.121094 -1.351562 Z M 2.121094 -2.867188 "/></g></g></g><g fill="#000000" fill-opacity="1"><g transform="translate(38.195435, 37.010719)"><g><path d="M 7.304688 0 L 5 -6.804688 L 2.488281 -6.804688 L 0.191406 0 L 1.757812 0 L 2.316406 -1.699219 L 5.183594 -1.699219 L 5.742188 0 Z M 3.550781 -5.453125 L 3.9375 -5.453125 L 4.730469 -3.050781 L 2.761719 -3.050781 Z M 3.550781 -5.453125 "/></g></g></g><g fill="#000000" fill-opacity="1"><g transform="translate(46.82229, 37.010719)"><g><path d="M 0.289062 -6.804688 L 0.289062 -5.453125 L 2.519531 -5.453125 L 2.519531 0 L 4.0625 0 L 4.0625 -5.453125 L 6.28125 -5.453125 L 6.28125 -6.804688 Z M 0.289062 -6.804688 "/></g></g></g><g fill="#000000" fill-opacity="1"><g transform="translate(54.52278, 37.010719)"><g><path d="M 0.289062 -6.804688 L 0.289062 -5.453125 L 2.519531 -5.453125 L 2.519531 0 L 4.0625 0 L 4.0625 -5.453125 L 6.28125 -5.453125 L 6.28125 -6.804688 Z M 0.289062 -6.804688 "/></g></g></g><g fill="#000000" fill-opacity="1"><g transform="translate(62.22327, 37.010719)"><g><path d="M 5.433594 0 L 5.433594 -1.351562 L 2.121094 -1.351562 L 2.121094 -2.730469 L 4.949219 -2.730469 L 4.949219 -4.082031 L 2.121094 -4.082031 L 2.121094 -5.453125 L 5.433594 -5.453125 L 5.433594 -6.804688 L 0.578125 -6.804688 L 0.578125 0 Z M 5.433594 0 "/></g></g></g><g fill="#000000" fill-opacity="1"><g transform="translate(69.17109, 37.010719)"><g><path d="M 2.121094 0 L 2.121094 -2.394531 L 4.785156 -2.394531 L 4.785156 0 L 6.332031 0 L 6.332031 -2.171875 C 6.332031 -2.703125 6.039062 -2.992188 5.511719 -2.992188 L 4.515625 -2.992188 L 4.515625 -3.378906 C 5.335938 -3.472656 6.242188 -3.78125 6.242188 -4.902344 C 6.242188 -6.425781 4.835938 -6.804688 3.214844 -6.804688 L 0.578125 -6.804688 L 0.578125 0 Z M 2.121094 -5.453125 L 3.214844 -5.453125 C 4.128906 -5.453125 4.699219 -5.453125 4.699219 -4.59375 C 4.699219 -3.746094 4.128906 -3.746094 3.214844 -3.746094 L 2.121094 -3.746094 Z M 2.121094 -5.453125 "/></g></g></g><g fill="#000000" fill-opacity="1"><g transform="translate(77.209317, 37.010719)"><g><path d="M 3.675781 -3.964844 L 3.675781 -3.097656 L 3.289062 -3.097656 L 3.289062 -3.964844 L 1.84375 -6.804688 L 0.191406 -6.804688 L 2.710938 -2.191406 L 2.710938 0 L 4.253906 0 L 4.253906 -2.191406 L 6.785156 -6.804688 L 5.132812 -6.804688 Z M 3.675781 -3.964844 "/></g></g></g><g fill="#000000" fill-opacity="1"><g transform="translate(85.314887, 37.010719)"><g/></g></g><g fill="#ff3131" fill-opacity="1"><g transform="translate(30.666372, 25.39561)"><g><path d="M 10.8125 -3.082031 C 10.8125 -5.414062 7.652344 -6.304688 5.589844 -7.003906 C 3.796875 -7.605469 3.523438 -7.796875 3.523438 -8.304688 C 3.523438 -8.875 4.238281 -9.128906 5.382812 -9.128906 C 6.765625 -9.128906 7.8125 -8.75 7.8125 -7.382812 L 10.351562 -7.382812 C 10.351562 -9.605469 8.8125 -11.355469 5.382812 -11.355469 C 2.492188 -11.355469 0.984375 -10.304688 0.984375 -8.398438 C 0.984375 -6.207031 2.90625 -5.574219 5.273438 -4.78125 C 6.90625 -4.222656 8.273438 -3.859375 8.273438 -3.046875 C 8.273438 -2.445312 7.734375 -2.0625 6.097656 -2.0625 C 3.875 -2.0625 3.015625 -2.605469 3.015625 -4.320312 L 0.476562 -4.320312 C 0.476562 -1.492188 1.984375 0.160156 6.019531 0.160156 C 9.464844 0.160156 10.8125 -1.160156 10.8125 -3.082031 Z M 10.8125 -3.082031 "/></g></g></g><g fill="#ff3131" fill-opacity="1"><g transform="translate(43.813931, 25.39561)"><g><path d="M 0.476562 -11.195312 L 0.476562 -8.972656 L 4.144531 -8.972656 L 4.144531 0 L 6.683594 0 L 6.683594 -8.972656 L 10.335938 -8.972656 L 10.335938 -11.195312 Z M 0.476562 -11.195312 "/></g></g></g><g fill="#ff3131" fill-opacity="1"><g transform="translate(56.485134, 25.39561)"><g><path d="M 12.019531 0 L 8.226562 -11.195312 L 4.097656 -11.195312 L 0.316406 0 L 2.890625 0 L 3.8125 -2.792969 L 8.527344 -2.792969 L 9.449219 0 Z M 5.84375 -8.972656 L 6.480469 -8.972656 L 7.78125 -5.019531 L 4.542969 -5.019531 Z M 5.84375 -8.972656 "/></g></g></g><g fill="#ff3131" fill-opacity="1"><g transform="translate(70.680675, 25.39561)"><g><path d="M 3.492188 0 L 3.492188 -3.9375 L 7.875 -3.9375 L 7.875 0 L 10.417969 0 L 10.417969 -3.574219 C 10.417969 -4.445312 9.941406 -4.921875 9.066406 -4.921875 L 7.429688 -4.921875 L 7.429688 -5.558594 C 8.78125 -5.714844 10.273438 -6.226562 10.273438 -8.066406 C 10.273438 -10.574219 7.957031 -11.195312 5.289062 -11.195312 L 0.953125 -11.195312 L 0.953125 0 Z M 3.492188 -8.972656 L 5.289062 -8.972656 C 6.796875 -8.972656 7.734375 -8.972656 7.734375 -7.558594 C 7.734375 -6.160156 6.796875 -6.160156 5.289062 -6.160156 L 3.492188 -6.160156 Z M 3.492188 -8.972656 "/></g></g></g><g fill="#ff3131" fill-opacity="1"><g transform="translate(83.906673, 25.39561)"><g/></g></g><g fill="#000000" fill-opacity="1"><g transform="translate(40.392633, 45.750416)"><g><path d="M 0.765625 0 L 0.765625 -3.082031 L 0.703125 -3.289062 L 0.832031 -3.289062 L 1.824219 0 L 2.625 0 L 3.621094 -3.289062 L 3.746094 -3.289062 L 3.679688 -3.082031 L 3.679688 0 L 4.082031 0 L 4.082031 -3.484375 L 3.273438 -3.484375 L 2.277344 -0.199219 L 2.164062 -0.199219 L 1.175781 -3.484375 L 0.359375 -3.484375 L 0.359375 0 Z M 0.765625 0 "/></g></g></g><g fill="#000000" fill-opacity="1"><g transform="translate(46.171805, 45.750416)"><g><path d="M 0.261719 -1.296875 C 0.261719 -0.425781 0.691406 0.0507812 1.640625 0.0507812 C 2.597656 0.0507812 3.027344 -0.425781 3.027344 -1.296875 L 3.027344 -3.484375 L 2.621094 -3.484375 L 2.621094 -1.359375 C 2.621094 -0.652344 2.367188 -0.296875 1.640625 -0.296875 C 0.914062 -0.296875 0.667969 -0.652344 0.667969 -1.359375 L 0.667969 -3.484375 L 0.261719 -3.484375 Z M 0.261719 -1.296875 "/></g></g></g><g fill="#000000" fill-opacity="1"><g transform="translate(50.794206, 45.750416)"><g><path d="M 0.765625 0 L 0.765625 -3.082031 L 0.703125 -3.289062 L 0.832031 -3.289062 L 1.824219 0 L 2.625 0 L 3.621094 -3.289062 L 3.746094 -3.289062 L 3.679688 -3.082031 L 3.679688 0 L 4.082031 0 L 4.082031 -3.484375 L 3.273438 -3.484375 L 2.277344 -0.199219 L 2.164062 -0.199219 L 1.175781 -3.484375 L 0.359375 -3.484375 L 0.359375 0 Z M 0.765625 0 "/></g></g></g><g fill="#000000" fill-opacity="1"><g transform="translate(56.573378, 45.750416)"><g><path d="M 1.507812 0 C 2.351562 0 2.882812 -0.222656 2.882812 -0.925781 C 2.882812 -1.546875 2.460938 -1.765625 1.929688 -1.773438 L 1.929688 -1.894531 C 2.289062 -1.917969 2.625 -2.125 2.625 -2.628906 C 2.625 -3.316406 2.136719 -3.484375 1.285156 -3.484375 L 0.359375 -3.484375 L 0.359375 0 Z M 0.765625 -3.140625 L 1.300781 -3.140625 C 1.867188 -3.140625 2.21875 -3.105469 2.21875 -2.566406 C 2.21875 -2.070312 1.867188 -1.988281 1.300781 -1.988281 L 0.765625 -1.988281 Z M 0.765625 -1.640625 L 1.523438 -1.640625 C 2.117188 -1.640625 2.476562 -1.503906 2.476562 -0.992188 C 2.476562 -0.445312 2.117188 -0.347656 1.523438 -0.347656 L 0.765625 -0.347656 Z M 0.765625 -1.640625 "/></g></g></g><g fill="#000000" fill-opacity="1"><g transform="translate(61.101855, 45.750416)"><g><path d="M 0.765625 0 L 0.765625 -1.398438 L 2.515625 -1.398438 L 2.515625 0 L 2.921875 0 L 2.921875 -1.308594 C 2.921875 -1.492188 2.84375 -1.574219 2.644531 -1.574219 L 2.230469 -1.574219 L 2.230469 -1.691406 C 2.605469 -1.753906 2.878906 -1.988281 2.878906 -2.511719 C 2.878906 -3.292969 2.347656 -3.484375 1.519531 -3.484375 L 0.359375 -3.484375 L 0.359375 0 Z M 0.765625 -3.140625 L 1.519531 -3.140625 C 2.109375 -3.140625 2.472656 -3.085938 2.472656 -2.441406 C 2.472656 -1.804688 2.109375 -1.746094 1.519531 -1.746094 L 0.765625 -1.746094 Z M 0.765625 -3.140625 "/></g></g></g><g fill="#000000" fill-opacity="1"><g transform="translate(65.719312, 45.750416)"><g><path d="M 3.242188 0 L 2.089844 -3.484375 L 1.316406 -3.484375 L 0.164062 0 L 0.570312 0 L 1.003906 -1.324219 L 2.40625 -1.324219 L 2.84375 0 Z M 1.644531 -3.289062 L 1.761719 -3.289062 L 2.292969 -1.671875 L 1.117188 -1.671875 Z M 1.644531 -3.289062 "/></g></g></g><g fill="#000000" fill-opacity="1"><g transform="translate(70.465251, 45.750416)"><g/></g></g></svg>